<?xml version="1.0" standalone="no"?>
<!DOCTYPE svg PUBLIC "-//W3C//DTD SVG 20010904//EN"
 "http://www.w3.org/TR/2001/REC-SVG-20010904/DTD/svg10.dtd">
<svg version="1.0" xmlns="http://www.w3.org/2000/svg"
 width="500.000000pt" height="500.000000pt" viewBox="0 0 500.000000 500.000000"
 preserveAspectRatio="xMidYMid meet">
<metadata>
Created by potrace 1.11, written by Peter Selinger 2001-2013
</metadata>
<g transform="translate(0.000000,500.000000) scale(0.100000,-0.100000)"
fill="#000000" stroke="none">
<path d="M2385 4049 c-60 -76 -113 -139 -116 -139 -4 0 -19 17 -35 38 -16 20
-33 42 -39 48 -5 7 -35 44 -65 83 -30 39 -61 71 -68 71 -21 0 -12 -16 91 -150
l94 -125 -25 -31 -24 -31 -57 23 c-31 12 -80 27 -109 32 -52 9 -197 8 -237 -2
-143 -35 -236 -98 -284 -192 -56 -108 -11 -240 108 -316 l45 -28 -42 -1 c-23
-1 -45 -2 -49 -3 -5 -1 -26 -5 -48 -9 -41 -8 -142 -44 -160 -58 -6 -5 -33 21
-65 63 -30 39 -60 76 -65 82 -6 6 -75 91 -154 189 -79 98 -147 177 -151 175
-5 -2 -77 -88 -160 -193 -83 -104 -164 -206 -180 -225 -15 -19 -133 -165 -260
-325 -128 -159 -253 -314 -277 -342 -25 -29 -42 -53 -38 -53 3 0 38 28 78 61
40 34 96 82 125 107 29 25 65 54 80 66 15 12 34 28 42 36 9 8 36 31 60 50 24
19 57 47 74 62 113 97 443 371 453 375 10 4 76 -45 149 -110 7 -7 19 -17 26
-22 7 -6 39 -32 70 -58 l57 -49 -19 -21 c-33 -35 -62 -126 -61 -191 1 -74 41
-164 98 -220 l40 -39 -21 -25 c-12 -14 -25 -30 -31 -36 -5 -6 -73 -90 -150
-186 -76 -96 -142 -177 -145 -180 -3 -3 -12 -14 -20 -25 -8 -11 5 -2 30 20 25
22 56 49 69 60 13 11 35 31 50 45 14 14 82 75 151 135 69 61 131 116 139 123
7 7 21 10 30 7 97 -40 181 -61 181 -45 0 5 -10 10 -22 10 -13 0 -52 14 -88 31
l-65 30 65 59 c65 60 80 69 80 50 0 -6 12 -28 26 -50 25 -37 30 -40 73 -40 60
0 215 78 239 120 11 20 45 42 112 73 52 25 141 68 196 95 l102 50 -5 -37 c-4
-25 0 -42 10 -52 10 -11 15 -42 16 -114 1 -55 4 -101 6 -103 1 -2 81 -3 176
-3 141 -1 175 2 184 14 6 8 10 56 10 106 0 67 3 91 13 91 18 0 31 41 21 68 -6
14 -5 22 2 22 6 0 97 -42 203 -94 148 -72 195 -100 204 -120 17 -39 177 -116
239 -116 47 0 48 1 76 51 33 57 20 60 115 -27 l44 -41 -38 -23 c-22 -12 -69
-30 -106 -39 -38 -9 -68 -19 -68 -23 0 -9 157 27 204 47 l39 16 41 -38 c22
-21 43 -40 46 -43 3 -3 43 -39 90 -80 133 -118 160 -142 219 -197 31 -28 58
-49 61 -47 2 3 0 8 -6 12 -8 5 -313 382 -356 438 -5 7 10 30 37 60 58 62 88
139 88 222 0 51 -7 75 -34 130 -19 37 -34 70 -34 74 0 4 36 37 80 74 44 36
102 85 129 108 71 60 73 61 111 32 18 -14 39 -32 47 -39 7 -7 135 -114 283
-237 149 -124 275 -229 281 -235 6 -5 57 -48 114 -95 57 -47 113 -95 124 -107
29 -33 41 -28 14 6 -13 16 -140 174 -282 352 -143 178 -262 326 -266 329 -3 3
-48 59 -100 125 -52 66 -97 122 -100 125 -3 3 -37 44 -75 92 -39 49 -73 88
-76 88 -4 0 -100 -116 -214 -258 l-208 -259 -36 17 c-80 39 -157 57 -250 59
-21 1 -19 4 20 32 57 41 86 74 110 126 57 125 -16 265 -176 339 -40 18 -98 37
-129 42 -92 15 -223 6 -291 -18 -92 -33 -98 -33 -118 -5 -21 29 -17 49 15 85
34 38 149 191 155 207 3 7 -1 13 -9 13 -7 0 -56 -54 -108 -120 -51 -66 -96
-120 -99 -120 -3 1 -22 21 -41 47 -19 25 -44 56 -55 69 -11 12 -45 54 -75 93
-30 38 -57 70 -60 70 -3 0 -54 -63 -115 -140z m-315 -233 c31 -7 89 -25 98
-32 4 -3 -108 -145 -123 -156 -16 -12 -23 -10 -57 26 -19 19 -41 34 -50 32
-22 -3 -48 -26 -48 -42 0 -7 -8 -17 -17 -23 -15 -8 -18 -25 -19 -100 0 -69 3
-91 13 -96 11 -4 5 -17 -24 -54 -37 -48 -40 -50 -82 -46 -104 9 -202 127 -197
236 4 84 69 165 172 217 81 41 232 58 334 38z m1110 -10 c194 -50 300 -204
234 -341 -29 -63 -98 -121 -157 -136 l-50 -12 -43 49 c-36 41 -41 51 -28 60
10 8 16 36 18 89 3 66 0 81 -18 104 -12 14 -26 35 -32 46 -17 30 -39 29 -73
-2 -17 -15 -38 -34 -46 -41 -12 -10 -24 0 -77 64 -88 107 -87 101 -26 118 29
8 62 16 73 18 45 8 164 0 225 -16z m-784 -292 c-3 -9 -6 -25 -6 -35 0 -11 -14
-33 -32 -49 -17 -16 -33 -37 -34 -46 -4 -25 -8 -25 -49 -8 l-38 16 63 56 c35
31 68 62 74 69 16 18 29 16 22 -3z m290 -50 c41 -37 74 -70 74 -74 0 -4 -10
-10 -22 -13 -13 -2 -30 -8 -39 -11 -12 -5 -18 0 -22 22 -4 17 -16 33 -31 40
-14 6 -26 15 -26 19 0 5 -4 25 -9 46 -5 20 -7 37 -4 37 3 0 38 -30 79 -66z
m-491 -192 c44 -24 50 -31 51 -62 2 -54 -11 -77 -58 -100 l-43 -21 -15 23 c-8
12 -32 41 -54 63 l-38 40 48 42 c27 24 51 43 54 43 3 0 27 -13 55 -28z m723
-17 l47 -45 -26 -23 c-14 -12 -38 -39 -53 -59 -25 -34 -29 -36 -55 -25 -61 26
-72 40 -74 89 -1 26 1 49 3 51 14 11 96 57 103 57 5 0 29 -20 55 -45z m-1177
1 c1 -7 -211 -279 -231 -296 -3 -3 -21 -25 -40 -50 -19 -25 -42 -54 -52 -65
-9 -11 -35 -44 -59 -74 l-42 -54 -23 29 c-67 83 -71 224 -8 318 l16 26 65 -57
65 -57 20 25 c55 69 55 63 4 126 l-46 58 59 28 c82 39 268 68 272 43z m1644 0
c22 -3 50 -7 62 -10 28 -6 143 -57 143 -63 0 -3 -21 -29 -46 -59 l-46 -54 33
-45 c19 -24 36 -44 39 -44 3 -1 23 15 45 35 22 19 52 44 66 54 l26 20 28 -62
c40 -88 39 -156 -4 -242 -18 -36 -36 -66 -40 -66 -15 0 -440 539 -428 543 11
4 26 4 122 -7z m-1305 -130 c22 -20 40 -40 40 -44 0 -8 -289 -137 -293 -131
-28 47 -29 53 -15 63 16 12 163 144 182 162 13 14 26 6 86 -50z m966 16 c23
-20 66 -59 96 -86 52 -46 54 -51 44 -78 -6 -15 -13 -28 -17 -28 -11 0 -272
119 -281 128 -10 10 85 102 104 102 7 0 31 -17 54 -38z"/>
<path d="M1580 2566 c0 -2 7 -6 15 -10 8 -3 15 -1 15 4 0 6 -7 10 -15 10 -8 0
-15 -2 -15 -4z"/>
<path d="M825 2115 c-84 -133 -102 -161 -108 -175 -4 -8 -157 -260 -341 -560
-184 -300 -333 -546 -332 -547 2 -2 502 -5 596 -4 l46 1 41 84 42 85 155 0
c85 1 157 -2 160 -7 3 -5 7 -41 10 -81 3 -40 6 -75 8 -77 3 -3 397 -6 555 -4
25 0 31 4 29 17 -2 10 -7 38 -11 63 -3 25 -8 56 -10 70 -3 14 -9 57 -15 95 -5
39 -12 81 -15 95 -3 14 -7 45 -11 70 -5 41 -19 134 -45 300 -11 73 -13 83 -30
195 -6 44 -13 90 -14 102 -3 24 -15 95 -21 128 -2 11 -9 59 -15 108 -7 48 -14
87 -18 88 -3 0 -145 2 -315 2 l-309 2 -32 -50z m234 -617 c1 -40 3 -88 5 -105
2 -20 -1 -33 -8 -34 -6 -1 -34 -2 -62 -3 l-51 -1 51 107 c28 59 54 107 57 107
3 1 6 -32 8 -71z"/>
<path d="M2002 2159 c-9 -3 -17 -10 -18 -15 0 -5 -4 -25 -8 -44 -18 -82 -75
-347 -80 -370 -2 -14 -16 -77 -30 -140 -15 -63 -28 -124 -31 -135 -10 -52 -26
-128 -44 -210 -11 -49 -33 -155 -50 -234 -17 -79 -33 -152 -36 -163 -7 -21
-39 -19 319 -19 197 0 271 3 276 12 4 6 15 50 25 98 9 47 19 93 20 101 2 8 11
52 21 98 16 77 18 82 43 82 247 2 362 10 454 34 281 72 424 242 413 490 -2 44
-11 100 -20 124 -52 142 -189 235 -406 277 -88 17 -806 29 -848 14z m647 -404
c35 -18 43 -44 24 -83 -18 -36 -70 -57 -152 -61 -45 -2 -53 0 -48 13 3 8 11
43 17 78 7 35 16 66 21 69 17 10 109 0 138 -16z"/>
<path d="M3540 2155 c-5 -6 -11 -22 -14 -35 -3 -19 -141 -660 -161 -750 -66
-303 -114 -534 -110 -538 5 -6 649 -3 720 3 48 4 79 8 183 21 122 16 305 85
409 155 154 104 263 259 298 422 18 86 11 229 -15 308 -45 137 -157 259 -304
334 -82 41 -215 72 -356 81 -161 11 -641 10 -650 -1z m602 -446 c107 -28 158
-140 118 -260 -35 -104 -154 -178 -288 -179 -29 0 -32 3 -27 20 3 11 8 30 11
42 7 42 12 65 34 164 21 98 24 110 36 169 13 70 15 70 116 44z"/>
</g>
</svg>
