<svg id="Layer_1" data-name="Layer 1" xmlns="http://www.w3.org/2000/svg" viewBox="0 0 2826.87 1124.35"><defs><style>.cls-1{fill:#c00000;}.cls-10,.cls-2,.cls-3,.cls-5,.cls-6,.cls-7,.cls-8,.cls-9{fill:#231f20;}.cls-2,.cls-3{stroke:#474748;}.cls-10,.cls-2,.cls-3,.cls-4,.cls-5,.cls-6,.cls-8,.cls-9{stroke-miterlimit:10;}.cls-2,.cls-5,.cls-8{stroke-width:2.72px;}.cls-3{stroke-width:8.16px;}.cls-4{fill:#474748;stroke:#231f20;stroke-width:4.5px;}.cls-5{stroke:#5c5c5c;}.cls-6{stroke:#676767;stroke-width:1.85px;}.cls-8{stroke:#4d4c4c;}.cls-10,.cls-9{stroke:#424243;}.cls-9{stroke-width:2.19px;}.cls-10{stroke-width:1.53px;}</style></defs><title>APD-Logo-v5</title><polygon class="cls-1" points="526.73 234.29 0 890.05 526.73 449.6 808.98 685.62 849.15 635.68 526.73 234.29"/><polygon class="cls-1" points="2300.07 449.6 2826.87 890.05 2300.07 234.29 1977.7 635.59 2017.93 685.54 2300.07 449.6"/><polygon class="cls-1" points="1975.15 699.22 1930.55 643.7 1413.46 0 896.31 643.7 851.71 699.22 510.26 1124.35 921.32 757.47 959.94 722.95 1413.46 318.3 1866.89 722.95 1905.58 757.47 2316.62 1124.35 1975.15 699.22"/><path class="cls-2" d="M1437.17,904.52l-160.29-63s4.05-22.43-18.38-23.45c-15,16-50.66,44.86-107.78,10.55-5.52,15,.33,18.35,0,19.37s43.54,26.84,43.54,26.84l27.19,1.74L1372,956.39s8.18,52-7.83,65.58S1152.1,1121.91,1132,1129.75c-101.94,20.06-195.31,39.54-162.46,98.22a383.08,383.08,0,0,0,33,59.8h51l103.68-53.68,13.91-28.22,238.64-116.57S1434.25,1037.31,1437.17,904.52Z" transform="translate(-103.28 -422.66)"/><path class="cls-2" d="M1596.34,904.52l160.26-63s-4.08-22.43,18.3-23.45c15,16,50.75,44.86,107.82,10.55,5.46,15-.37,18.35,0,19.37s-43.54,26.84-43.54,26.84L1812,876.53l-150.55,79.86s-8.13,52,7.85,65.58,212.08,99.94,232.16,107.79c101.9,20.06,195.29,39.54,162.45,98.22a379.81,379.81,0,0,1-33,59.8h-51l-103.68-53.68-13.88-28.22-238.69-116.57S1599.27,1037.31,1596.34,904.52Z" transform="translate(-103.28 -422.66)"/><polygon class="cls-2" points="1311.03 849.08 1506.94 849.08 1515.56 835.31 1518.67 606.04 1305.7 606.04 1305.7 836.78 1311.03 849.08"/><path class="cls-3" d="M1558.27,1125.16a44.15,44.15,0,1,1-44.15-44.14A44.15,44.15,0,0,1,1558.27,1125.16Z" transform="translate(-103.28 -422.66)"/><path class="cls-4" d="M1537.67,1125.49a24.3,24.3,0,1,1-24.31-24.33A24.31,24.31,0,0,1,1537.67,1125.49Z" transform="translate(-103.28 -422.66)"/><path class="cls-5" d="M1483.28,744.53l-221-291s3.48-14.51,10.73-7.26,230.25,291.86,230.25,291.86Z" transform="translate(-103.28 -422.66)"/><path class="cls-5" d="M1548.75,744.53l221-291s-3.45-14.51-10.66-7.26-230.28,291.86-230.28,291.86Z" transform="translate(-103.28 -422.66)"/><rect class="cls-6" x="1399.98" y="140.55" width="19.02" height="184.92"/><path class="cls-6" d="M1563.35,532.14v17.23c-.72,13-22.5,23.35-49.21,23.35s-48.55-10.37-49.27-23.35a4.84,4.84,0,0,1,0-.65V531.47a13.93,13.93,0,0,0,3.28,8.64c2.85,3.56,7.36,6.75,13.15,9.25,8.72,3.81,20.2,6.13,32.87,6.13s24.12-2.33,32.89-6.13c5.72-2.5,10.23-5.69,13-9.25A13.93,13.93,0,0,0,1563.35,532.14Z" transform="translate(-103.28 -422.66)"/><path class="cls-6" d="M1563.35,531.47v.66a13.93,13.93,0,0,1-3.28,8c-2.82,3.56-7.33,6.75-13,9.25-8.77,3.81-20.27,6.13-32.89,6.13s-24.15-2.33-32.87-6.13c-5.79-2.5-10.3-5.69-13.15-9.25a13.93,13.93,0,0,1-3.28-8.64c0-13.25,22.06-24,49.3-24S1563.35,518.23,1563.35,531.47Z" transform="translate(-103.28 -422.66)"/><path class="cls-7" d="M1518.18,1048.23v.39a7.73,7.73,0,0,0-1.34-.2A7.76,7.76,0,0,1,1518.18,1048.23Z" transform="translate(-103.28 -422.66)"/><path class="cls-8" d="M1624.67,1151.51c-49.86,10.43-22.18-114.66-106.5-103.28a5,5,0,0,1-2.72,0c-84.27-11.38-56.6,113.71-106.48,103.28-36,2,0-93.91,0-93.91l9-187.3s14.41-16.18,25.2-18,21.65-82.8,23.42-106.22c1.64-21.12,42.26-21.73,50.25-21.67s48.61.55,50.25,21.67c1.78,23.42,12.56,104.46,23.39,106.22s25.2,18,25.2,18l9,187.3S1660.71,1153.55,1624.67,1151.51Z" transform="translate(-103.28 -422.66)"/><path class="cls-7" d="M1516.84,1048.42a8.18,8.18,0,0,0-1.38.2v-.39A7.81,7.81,0,0,1,1516.84,1048.42Z" transform="translate(-103.28 -422.66)"/><path class="cls-9" d="M1903.85,1109.22l-14.48,55.85c-7,27.5,24.34,59.34,70.12,71.15s88.57-.89,95.69-28.33L2069.6,1152c4.88-19.11-8.8-40.3-33-55.42l.66-2.44c4.31-16.88-9.43-35-30.72-40.52s-42,3.74-46.41,20.65l-.57,2.4C1931,1078.16,1908.76,1090.11,1903.85,1109.22Z" transform="translate(-103.28 -422.66)"/><path class="cls-9" d="M1129.59,1115,1144,1170.9c7.08,27.47-24.25,59.31-70.06,71.09s-88.6-.86-95.69-28.33l-14.43-55.89c-4.93-19.11,8.76-40.32,33-55.43l-.66-2.44c-4.34-16.88,9.37-35,30.69-40.52s42,3.74,46.38,20.65l.66,2.4C1102.42,1083.95,1124.7,1095.9,1129.59,1115Z" transform="translate(-103.28 -422.66)"/><path class="cls-10" d="M1256.77,762.42l5.32,44c2.6,21.61-19.47,42-49.25,45.6s-56-11-58.61-32.59l-5.32-44c-1.81-15,8.32-29.5,24.68-38.08l-.21-1.93c-1.6-13.3,8.32-25.4,22.15-27.05s26.41,7.74,28,21l.24,1.93C1241.69,735.75,1255,747.34,1256.77,762.42Z" transform="translate(-103.28 -422.66)"/><path class="cls-10" d="M1779.48,762.42l-5.32,44c-2.61,21.61,19.43,42,49.23,45.6s56-11,58.56-32.59l5.37-44c1.78-15-8.33-29.5-24.71-38.08l.26-1.93c1.52-13.3-8.36-25.4-22.18-27.05s-26.35,7.74-28,21l-.23,1.93C1794.56,735.75,1781.26,747.34,1779.48,762.42Z" transform="translate(-103.28 -422.66)"/><path class="cls-7" d="M1436.36,771v.59c-10.22-79.86-107.12-142.48-225.14-142.48-124.89,0-226.08,70.06-226.08,156.51,0,83.87,95.39,152.4,215.18,156.28-3.71.13-7.38.2-11.09.2-136.54,0-247.18-76.61-247.18-171.11s110.64-171.14,247.18-171.14S1436.36,676.49,1436.36,771Z" transform="translate(-103.28 -422.66)"/><path class="cls-7" d="M1593.73,771a1.39,1.39,0,0,0,.09.59c10.17-79.86,107.1-142.48,225.06-142.48,124.89,0,226.1,70.06,226.1,156.51,0,83.87-95.38,152.4-215.18,156.28,3.68.13,7.33.2,11.06.2C1977.44,942.1,2088,865.49,2088,771s-110.58-171.14-247.16-171.14S1593.73,676.49,1593.73,771Z" transform="translate(-103.28 -422.66)"/><path class="cls-7" d="M1698.5,1128.83a3.25,3.25,0,0,0,.06.73C1710.6,1027.24,1825,947,1964.37,947c147.48,0,267,89.77,267,200.48,0,107.56-112.65,195.26-254.12,200.27,4.37.2,8.68.29,13.13.29,161.21,0,291.82-98.19,291.82-219.23s-130.61-219.2-291.82-219.2S1698.5,1007.77,1698.5,1128.83Z" transform="translate(-103.28 -422.66)"/><path class="cls-7" d="M1335,1128.83a4.15,4.15,0,0,1,0,.73C1322.87,1027.24,1208.45,947,1069.07,947c-147.46,0-267,89.77-267,200.54,0,107.5,112.65,195.21,254.12,200.21-4.37.2-8.72.29-13.1.29-161.24,0-291.91-98.19-291.91-219.23s130.67-219.2,291.91-219.2S1335,1007.77,1335,1128.83Z" transform="translate(-103.28 -422.66)"/></svg>