<?xml version="1.0" encoding="utf-8"?>
<!-- Generator: Adobe Illustrator 21.0.2, SVG Export Plug-In . SVG Version: 6.00 Build 0)  -->
<svg version="1.1" id="Layer_1" xmlns="http://www.w3.org/2000/svg" xmlns:xlink="http://www.w3.org/1999/xlink" x="0px" y="0px"
	 viewBox="0 0 2826.9 1124.3" style="enable-background:new 0 0 2826.9 1124.3;" xml:space="preserve">
<style type="text/css">
	.st0{fill:#C00000;}
	.st1{fill:#FFFFFF;stroke:#474748;stroke-width:2.72;stroke-miterlimit:10;}
	.st2{fill:#FFFFFF;stroke:#474748;stroke-width:8.16;stroke-miterlimit:10;}
	.st3{fill:#9F9FA0;stroke:#231F20;stroke-width:4.5;stroke-miterlimit:10;}
	.st4{fill:#FFFFFF;stroke:#5C5C5C;stroke-width:2.72;stroke-miterlimit:10;}
	.st5{fill:#FFFFFF;stroke:#676767;stroke-width:1.85;stroke-miterlimit:10;}
	.st6{fill:#231F20;}
	.st7{fill:#FFFFFF;stroke:#4D4C4C;stroke-width:2.72;stroke-miterlimit:10;}
	.st8{fill:#FFFFFF;stroke:#424243;stroke-width:2.19;stroke-miterlimit:10;}
	.st9{fill:#FFFFFF;stroke:#424243;stroke-width:1.53;stroke-miterlimit:10;}
	.st10{fill:#FFFFFF;}
</style>
<title>APD-Logo-v5</title>
<polygon class="st0" points="526.7,234.3 0,890 526.7,449.6 809,685.6 849.2,635.7 "/>
<polygon class="st0" points="2300.1,449.6 2826.9,890 2300.1,234.3 1977.7,635.6 2017.9,685.5 "/>
<polygon class="st0" points="1975.2,699.2 1930.6,643.7 1413.5,0 896.3,643.7 851.7,699.2 510.3,1124.3 921.3,757.5 959.9,723 
	1413.5,318.3 1866.9,723 1905.6,757.5 2316.6,1124.3 "/>
<path class="st1" d="M1333.9,481.9l-160.3-63c0,0,4.1-22.4-18.4-23.5c-15,16-50.7,44.9-107.8,10.5c-5.5,15,0.3,18.3,0,19.4
	s43.5,26.8,43.5,26.8l27.2,1.7l150.6,79.8c0,0,8.2,52-7.8,65.6c-16,13.6-212.1,99.9-232.2,107.8c-101.9,20.1-195.3,39.5-162.5,98.2
	c9.2,20.9,20.2,40.9,33,59.8h51l103.7-53.7l13.9-28.2l238.6-116.6C1306.5,666.6,1331,614.7,1333.9,481.9z"/>
<path class="st1" d="M1493.1,481.9l160.3-63c0,0-4.1-22.4,18.3-23.5c15,16,50.8,44.9,107.8,10.5c5.5,15-0.4,18.3,0,19.4
	s-43.5,26.8-43.5,26.8l-27.2,1.7l-150.6,79.9c0,0-8.1,52,7.8,65.6c16,13.6,212.1,99.9,232.2,107.8c101.9,20.1,195.3,39.5,162.4,98.2
	c-9.2,20.9-20.2,40.9-33,59.8h-51l-103.7-53.7l-13.9-28.2l-238.7-116.6C1520.4,666.7,1496,614.7,1493.1,481.9z"/>
<polygon class="st1" points="1311,849.1 1506.9,849.1 1515.6,835.3 1518.7,606 1305.7,606 1305.7,836.8 "/>
<path class="st2" d="M1455,702.5c0,24.4-19.8,44.2-44.1,44.2c-24.4,0-44.2-19.8-44.2-44.1c0-24.4,19.8-44.2,44.1-44.2c0,0,0,0,0,0
	C1435.2,658.4,1455,678.1,1455,702.5z"/>
<path class="st3" d="M1434.4,702.8c0,13.4-10.9,24.3-24.3,24.3s-24.3-10.9-24.3-24.3c0-13.4,10.9-24.3,24.3-24.3
	C1423.5,678.5,1434.4,689.4,1434.4,702.8C1434.4,702.8,1434.4,702.8,1434.4,702.8z"/>
<path class="st4" d="M1380,321.9l-221-291c0,0,3.5-14.5,10.7-7.3S1400,315.5,1400,315.5L1380,321.9z"/>
<path class="st4" d="M1445.5,321.9l221-291c0,0-3.4-14.5-10.7-7.3s-230.3,291.9-230.3,291.9L1445.5,321.9z"/>
<rect x="1400" y="140.6" class="st5" width="19" height="184.9"/>
<path class="st5" d="M1460.1,109.5v17.2c-0.7,13-22.5,23.3-49.2,23.3s-48.6-10.4-49.3-23.3c0-0.2,0-0.4,0-0.7v-17.3
	c0.1,3.2,1.2,6.2,3.3,8.6c2.8,3.6,7.4,6.8,13.2,9.3c8.7,3.8,20.2,6.1,32.9,6.1s24.1-2.3,32.9-6.1c5.7-2.5,10.2-5.7,13-9.3
	C1458.7,115.2,1459.8,112.4,1460.1,109.5z"/>
<path class="st5" d="M1460.1,108.8v0.7c-0.2,2.9-1.4,5.7-3.3,8c-2.8,3.6-7.3,6.8-13,9.3c-8.8,3.8-20.3,6.1-32.9,6.1
	s-24.2-2.3-32.9-6.1c-5.8-2.5-10.3-5.7-13.2-9.3c-2-2.4-3.2-5.5-3.3-8.6c0-13.3,22.1-24,49.3-24S1460.1,95.6,1460.1,108.8z"/>
<path class="st6" d="M1414.9,625.6v0.4c-0.4-0.1-0.9-0.2-1.3-0.2C1414,625.7,1414.4,625.6,1414.9,625.6z"/>
<path class="st7" d="M1521.4,728.8c-49.9,10.4-22.2-114.7-106.5-103.3c-0.9,0.3-1.8,0.3-2.7,0c-84.3-11.4-56.6,113.7-106.5,103.3
	c-36,2,0-93.9,0-93.9l9-187.3c0,0,14.4-16.2,25.2-18s21.7-82.8,23.4-106.2c1.6-21.1,42.3-21.7,50.3-21.7s48.6,0.5,50.3,21.7
	c1.8,23.4,12.6,104.5,23.4,106.2s25.2,18,25.2,18l9,187.3C1521.4,634.9,1557.4,730.9,1521.4,728.8z"/>
<path class="st6" d="M1413.6,625.8c-0.5,0-0.9,0.1-1.4,0.2v-0.4C1412.6,625.6,1413.1,625.7,1413.6,625.8z"/>
<path class="st8" d="M1800.6,686.6l-14.5,55.8c-7,27.5,24.3,59.3,70.1,71.2s88.6-0.9,95.7-28.3l14.4-55.9c4.9-19.1-8.8-40.3-33-55.4
	l0.7-2.4c4.3-16.9-9.4-35-30.7-40.5s-42,3.7-46.4,20.7l-0.6,2.4C1827.7,655.5,1805.5,667.4,1800.6,686.6z"/>
<path class="st8" d="M1026.3,692.3l14.4,55.9c7.1,27.5-24.3,59.3-70.1,71.1s-88.6-0.9-95.7-28.3l-14.4-55.9
	c-4.9-19.1,8.8-40.3,33-55.4l-0.7-2.4c-4.3-16.9,9.4-35,30.7-40.5s42,3.7,46.4,20.7l0.7,2.4C999.1,661.3,1021.4,673.2,1026.3,692.3z
	"/>
<path class="st9" d="M1153.5,339.8l5.3,44c2.6,21.6-19.5,42-49.3,45.6s-56-11-58.6-32.6l-5.3-44c-1.8-15,8.3-29.5,24.7-38.1
	l-0.2-1.9c-1.6-13.3,8.3-25.4,22.2-27s26.4,7.7,28,21l0.2,1.9C1138.4,313.1,1151.7,324.7,1153.5,339.8z"/>
<path class="st9" d="M1676.2,339.8l-5.3,44c-2.6,21.6,19.4,42,49.2,45.6s56-11,58.6-32.6l5.4-44c1.8-15-8.3-29.5-24.7-38.1l0.3-1.9
	c1.5-13.3-8.4-25.4-22.2-27s-26.3,7.7-28,21l-0.2,1.9C1691.3,313.1,1678,324.7,1676.2,339.8z"/>
<path class="st10" d="M1333.1,348.3v0.6c-10.2-79.9-107.1-142.5-225.1-142.5c-124.9,0-226.1,70.1-226.1,156.5
	c0,83.9,95.4,152.4,215.2,156.3c-3.7,0.1-7.4,0.2-11.1,0.2c-136.5,0-247.2-76.6-247.2-171.1s110.6-171.1,247.2-171.1
	S1333.1,253.8,1333.1,348.3z"/>
<path class="st10" d="M1490.4,348.3c0,0.2,0,0.4,0.1,0.6c10.2-79.9,107.1-142.5,225.1-142.5c124.9,0,226.1,70.1,226.1,156.5
	c0,83.9-95.4,152.4-215.2,156.3c3.7,0.1,7.3,0.2,11.1,0.2c136.6,0,247.1-76.6,247.1-171.1s-110.6-171.1-247.2-171.1
	S1490.4,253.8,1490.4,348.3z"/>
<path class="st10" d="M1595.2,706.2c0,0.2,0,0.5,0.1,0.7c12-102.3,126.4-182.6,265.8-182.6c147.5,0,267,89.8,267,200.5
	c0,107.6-112.6,195.3-254.1,200.3c4.4,0.2,8.7,0.3,13.1,0.3c161.2,0,291.8-98.2,291.8-219.2S2048.3,487,1887.1,487
	S1595.2,585.1,1595.2,706.2z"/>
<path class="st10" d="M1231.7,706.2c0,0.2,0,0.5,0,0.7c-12.1-102.3-126.6-182.6-265.9-182.6c-147.5,0-267,89.8-267,200.5
	c0,107.5,112.7,195.2,254.1,200.2c-4.4,0.2-8.7,0.3-13.1,0.3c-161.2,0-291.9-98.2-291.9-219.2S778.6,487,939.8,487
	S1231.7,585.1,1231.7,706.2z"/>
</svg>
